<svg width="210" height="210" viewBox="0 0 210 210" fill="none" xmlns="http://www.w3.org/2000/svg">
<rect width="210" height="210" rx="36" fill="#D9D9D9"/>
<path d="M105 19.6875C57.8845 19.6875 19.6875 57.8845 19.6875 105C19.6875 145.284 47.6175 179.025 85.1648 187.97C83.2223 187.507 81.2963 186.989 79.4063 186.398V166.852C79.4063 166.852 76.207 167.918 71.9414 167.918C60.0075 167.918 55.0495 157.27 53.8125 151.922C53.0611 148.664 51.0989 145.576 48.9923 143.689C46.4756 141.445 45.2977 141.438 45.2812 140.67C45.2484 139.059 47.4403 139.125 48.4805 139.125C53.8125 139.125 57.855 144.798 59.7319 147.732C64.3814 154.973 69.3722 156.188 71.9414 156.188C75.1406 156.188 77.9034 155.708 79.8066 154.79C80.6859 148.595 83.4422 143.076 87.9375 139.125C67.9317 135.125 53.8125 123.651 53.8125 105C53.8125 95.3925 57.668 86.5627 64.0927 79.4325C63.4364 77.572 62.3438 73.8084 62.3438 67.6758C62.3438 63.6234 62.6259 58.6491 64.4766 53.8125C64.4766 53.8125 76.6434 53.8978 88.118 64.7653C93.4139 63.2231 99.0806 62.3438 105 62.3438C110.919 62.3438 116.586 63.2231 121.882 64.7653C133.357 53.8978 145.523 53.8125 145.523 53.8125C147.384 58.6491 147.656 63.6234 147.656 67.6758C147.656 74.2875 146.777 78.143 146.239 79.8066C152.467 86.8711 156.188 95.5631 156.188 105C156.188 123.651 142.068 135.125 122.062 139.125C127.404 143.817 130.594 150.652 130.594 158.32V186.398C128.704 186.992 126.781 187.507 124.835 187.97C162.382 179.025 190.312 145.284 190.312 105C190.312 57.8845 152.115 19.6875 105 19.6875ZM110.949 190.083C108.983 190.221 107.002 190.312 105 190.312C107.002 190.312 108.98 190.217 110.949 190.083ZM123.985 188.167C120.166 189.036 116.251 189.646 112.255 189.984C116.251 189.646 120.166 189.033 123.985 188.167ZM105 190.312C102.998 190.312 101.017 190.221 99.0511 190.083C101.02 190.217 102.998 190.312 105 190.312ZM97.7419 189.984C93.7486 189.646 89.8308 189.036 86.0147 188.167C89.8341 189.033 93.7486 189.646 97.7419 189.984Z" fill="black"/>
</svg>
