<svg width="210" height="210" viewBox="0 0 210 210" fill="none" xmlns="http://www.w3.org/2000/svg">
<rect width="210" height="210" rx="36" fill="#D9D9D9"/>
<path fill-rule="evenodd" clip-rule="evenodd" d="M39.4043 28.2048C33.811 29.1291 29.1334 33.923 28.2172 39.6703C27.7818 42.4006 27.7818 168.38 28.2172 171.11C29.1567 177.003 33.8159 181.663 39.707 182.603C42.4366 183.039 168.384 183.039 171.113 182.603C177.004 181.663 181.664 177.003 182.603 171.11C183.039 168.38 183.039 42.4006 182.603 39.6703C181.664 33.7776 177.004 29.1173 171.113 28.1775C168.607 27.7777 41.8295 27.8041 39.4043 28.2048ZM67.4035 45.4722C71.2312 46.4749 75.5037 49.8045 77.5048 53.3434C78.6505 55.3701 79.676 59.1395 79.6688 61.2973C79.6539 65.63 77.8642 69.9545 74.8316 72.9846C71.4462 76.3672 67.6708 77.9115 62.85 77.8851C58.1732 77.8597 54.4712 76.2318 51.1358 72.7341C48.1885 69.6435 46.671 65.749 46.671 61.2767C46.671 50.6125 56.9927 42.744 67.4035 45.4722ZM144.62 84.3005C156.307 86.8657 162.875 94.4166 165.51 108.315C166.39 112.954 166.562 118.228 166.567 140.626L166.571 162.172C166.571 162.902 166.344 163.613 165.921 164.208C164.726 165.887 164.197 165.962 153.532 165.962C145.12 165.962 143.661 165.894 142.751 165.462C140.567 164.425 140.702 165.901 140.526 141.141C140.381 120.911 140.316 118.659 139.812 116.596C138.57 111.509 135.975 107.972 132.447 106.558C130.971 105.967 130.139 105.854 127.21 105.85C123.914 105.845 123.619 105.896 121.677 106.816C117.371 108.857 114.47 113.442 113.298 120.059C113.096 121.197 112.98 129.343 112.98 142.273C112.98 164.617 113.024 164.032 111.213 165.262C110.474 165.764 109.547 165.81 100.21 165.81C90.3735 165.81 89.9829 165.788 89.1582 165.183C88.688 164.838 88.0648 164.089 87.7739 163.517C87.2782 162.545 87.2443 160.096 87.244 125.273C87.2434 84.0434 87.1129 86.6992 89.2036 85.4066C90.1416 84.8266 90.6917 84.796 100.147 84.7981C109.323 84.7999 110.17 84.8439 110.953 85.3602C112.578 86.432 112.816 87.0905 112.98 90.9501L113.028 92.1009C113.064 92.94 114.122 93.2848 114.645 92.6276C118.4 87.9085 124.225 84.8578 131.298 83.9053C134.25 83.508 142.065 83.7396 144.62 84.3005ZM73.8291 85.3884C74.361 85.7131 75.0423 86.3539 75.343 86.8124C75.8619 87.605 75.8892 89.5145 75.8892 125.214C75.8892 160.943 75.8622 162.831 75.3393 163.79C74.999 164.413 74.3065 165.017 73.5227 165.373C72.3679 165.897 71.4386 165.949 63.021 165.954C52.7054 165.961 52.3451 165.899 50.988 163.867C50.5378 163.193 50.2983 162.4 50.3 161.59L50.3767 125.046L50.4529 88.58C50.4547 87.7312 50.7806 86.9152 51.364 86.2988C51.8636 85.7706 52.5449 85.2252 52.8779 85.0864C53.211 84.9477 57.8435 84.8263 63.1724 84.8163C72.261 84.7993 72.9213 84.8348 73.8291 85.3884Z" fill="#0057FF"/>
</svg>
