<svg width="80" height="72" viewBox="0 0 80 72" fill="none" xmlns="http://www.w3.org/2000/svg">
<path d="M80 36.0082C80 30.6523 73.3632 25.5766 63.1879 22.4289C65.5361 11.9478 64.4925 3.60906 59.894 0.939345C58.8341 0.313115 57.5948 0.0164795 56.2413 0.0164795V3.69146C56.9914 3.69146 57.5948 3.83978 58.1003 4.11994C60.318 5.40536 61.2801 10.2998 60.53 16.5951C60.3506 18.1442 60.0571 19.7757 59.6983 21.4401C56.5022 20.6491 53.0126 20.0394 49.3437 19.6439C47.1423 16.5951 44.8594 13.8265 42.5601 11.404C47.8761 6.41062 52.8659 3.67498 56.2576 3.67498V0C51.7733 0 45.903 3.23003 39.9674 8.83314C34.0318 3.26299 28.1614 0.0659192 23.6771 0.0659192V3.7409C27.0526 3.7409 32.0587 6.46006 37.3746 11.4205C35.0917 13.843 32.8088 16.5951 30.64 19.6439C26.9548 20.0394 23.4651 20.6491 20.2691 21.4566C19.894 19.8086 19.6168 18.2101 19.4211 16.6775C18.6547 10.3822 19.6005 5.48775 21.8019 4.18585C22.2911 3.88922 22.927 3.75738 23.6771 3.75738V0.0823987C22.3074 0.0823987 21.0681 0.379034 19.9918 1.00526C15.4097 3.67498 14.3824 11.9973 16.7468 22.4454C6.60416 25.6095 0 30.6688 0 36.0082C0 41.3642 6.63677 46.4399 16.8121 49.5875C14.4639 60.0687 15.5075 68.4074 20.106 71.0771C21.1659 71.7034 22.4052 72 23.775 72C28.2593 72 34.1296 68.77 40.0652 63.1669C46.0008 68.737 51.8712 71.9341 56.3555 71.9341C57.7252 71.9341 58.9645 71.6374 60.0408 71.0112C64.6229 68.3415 65.6502 60.0192 63.2858 49.5711C73.3958 46.4234 80 41.3477 80 36.0082ZM58.7689 25.0163C58.1655 27.1421 57.4154 29.3339 56.5675 31.5257C55.8989 30.2074 55.1977 28.889 54.4313 27.5706C53.6812 26.2522 52.8822 24.9668 52.0832 23.7143C54.3987 24.0604 56.6327 24.4889 58.7689 25.0163ZM51.3004 42.5672C50.0285 44.7919 48.724 46.9013 47.3706 48.8624C44.9409 49.0767 42.4786 49.192 40 49.192C37.5377 49.192 35.0754 49.0767 32.662 48.8789C31.3086 46.9178 29.9878 44.8249 28.7159 42.6166C27.4766 40.4578 26.3514 38.266 25.3241 36.0577C26.3351 33.8494 27.4766 31.6411 28.6996 29.4823C29.9715 27.2575 31.276 25.1481 32.6294 23.187C35.0591 22.9728 37.5214 22.8574 40 22.8574C42.4623 22.8574 44.9246 22.9728 47.338 23.1705C48.6914 25.1316 50.0122 27.2245 51.2841 29.4328C52.5234 31.5917 53.6486 33.7835 54.6759 35.9918C53.6486 38.2 52.5234 40.4083 51.3004 42.5672ZM56.5675 40.4248C57.448 42.6331 58.1981 44.8414 58.8178 46.9837C56.6816 47.5111 54.4313 47.9561 52.0995 48.3021C52.8985 47.0332 53.6975 45.7313 54.4476 44.3964C55.1977 43.078 55.8989 41.7432 56.5675 40.4248ZM40.0326 58.0087C38.5161 56.4266 36.9996 54.6633 35.4994 52.7352C36.967 52.8011 38.4672 52.8505 39.9837 52.8505C41.5165 52.8505 43.033 52.8176 44.5169 52.7352C43.0493 54.6633 41.5328 56.4266 40.0326 58.0087ZM27.9005 48.3021C25.585 47.9561 23.351 47.5276 21.2148 47.0002C21.8182 44.8743 22.5683 42.6825 23.4162 40.4907C24.0848 41.8091 24.786 43.1275 25.5524 44.4459C26.3188 45.7642 27.1015 47.0497 27.9005 48.3021ZM39.9511 14.0078C41.4676 15.5898 42.9841 17.3532 44.4843 19.2813C43.0167 19.2154 41.5165 19.1659 40 19.1659C38.4672 19.1659 36.9507 19.1989 35.4668 19.2813C36.9344 17.3532 38.4509 15.5898 39.9511 14.0078ZM27.8842 23.7143C27.0852 24.9833 26.2862 26.2852 25.5361 27.6201C24.786 28.9384 24.0848 30.2568 23.4162 31.5752C22.5357 29.3669 21.7856 27.1586 21.1659 25.0163C23.3021 24.5054 25.5524 24.0604 27.8842 23.7143ZM13.1268 44.347C7.35426 41.8585 3.62006 38.5956 3.62006 36.0082C3.62006 33.4209 7.35426 30.1414 13.1268 27.6695C14.5292 27.0597 16.062 26.5159 17.6437 26.005C18.5732 29.2351 19.7962 32.5969 21.3127 36.0412C19.8125 39.469 18.6058 42.8144 17.6926 46.0279C16.0783 45.517 14.5455 44.9567 13.1268 44.347ZM21.8997 67.8965C19.682 66.6111 18.7199 61.7166 19.47 55.4214C19.6494 53.8723 19.9429 52.2408 20.3017 50.5763C23.4978 51.3674 26.9874 51.9771 30.6563 52.3726C32.8577 55.4214 35.1406 58.19 37.4399 60.6125C32.1239 65.6059 27.1341 68.3415 23.7424 68.3415C23.0086 68.325 22.3889 68.1767 21.8997 67.8965ZM60.5789 55.339C61.3453 61.6342 60.3995 66.5287 58.1981 67.8306C57.7089 68.1273 57.073 68.2591 56.3229 68.2591C52.9474 68.2591 47.9413 65.5399 42.6254 60.5795C44.9083 58.157 47.1912 55.4049 49.36 52.3561C53.0453 51.9606 56.5349 51.3509 59.7309 50.5434C60.106 52.2078 60.3995 53.8064 60.5789 55.339ZM66.8569 44.347C65.4546 44.9567 63.9217 45.5006 62.34 46.0114C61.4105 42.7814 60.1875 39.4195 58.671 35.9753C60.1712 32.5475 61.3779 29.2021 62.2911 25.9886C63.9054 26.4994 65.4382 27.0597 66.8732 27.6695C72.6457 30.1579 76.3799 33.4209 76.3799 36.0082C76.3636 38.5956 72.6294 41.875 66.8569 44.347Z" fill="#61DAFB"/>
<path d="M39.9837 43.5395C44.0994 43.5395 47.4358 40.1677 47.4358 36.0083C47.4358 31.8489 44.0994 28.4771 39.9837 28.4771C35.868 28.4771 32.5316 31.8489 32.5316 36.0083C32.5316 40.1677 35.868 43.5395 39.9837 43.5395Z" fill="#61DAFB"/>
</svg>
